<?xml version="1.0" standalone="no"?>
<!DOCTYPE svg PUBLIC "-//W3C//DTD SVG 20010904//EN"
 "http://www.w3.org/TR/2001/REC-SVG-20010904/DTD/svg10.dtd">
<svg version="1.0" xmlns="http://www.w3.org/2000/svg"
 width="378.000000pt" height="378.000000pt" viewBox="0 0 378.000000 378.000000"
 preserveAspectRatio="xMidYMid meet">
<metadata>
Created by potrace 1.14, written by Peter Selinger 2001-2017
</metadata>
<g transform="translate(0.000000,378.000000) scale(0.100000,-0.100000)"
fill="#000000" stroke="none">
<path d="M1844 3561 c-80 -26 -126 -61 -160 -122 -11 -19 -21 -36 -24 -39 -6
-6 -13 -31 -13 -50 0 -8 -3 -19 -6 -25 -16 -24 3 -151 26 -177 9 -10 12 -18 7
-18 -5 0 0 -7 10 -15 11 -8 16 -15 11 -15 -4 0 6 -14 24 -30 17 -17 31 -34 31
-40 0 -5 6 -13 13 -17 17 -11 61 -82 65 -108 6 -36 7 -40 15 -52 4 -6 4 -18 1
-27 -3 -9 -2 -16 4 -16 6 0 8 -9 5 -20 -3 -11 -1 -20 3 -20 5 0 10 -21 11 -46
1 -25 7 -52 14 -60 6 -8 8 -14 3 -14 -5 0 6 -10 24 -21 17 -12 32 -24 32 -28
0 -14 45 -27 74 -22 16 3 34 15 40 25 6 11 22 29 35 41 22 20 38 85 20 85 -4
0 -5 9 -2 20 3 12 0 20 -6 20 -8 0 -8 7 2 21 10 13 13 30 8 47 -6 23 -7 107
-2 115 2 1 4 12 7 25 2 13 12 37 21 55 9 18 16 35 15 40 -1 4 2 7 7 7 4 0 21
28 36 62 29 65 42 180 22 206 -5 6 -7 12 -3 12 8 0 -42 100 -58 114 -6 6 -28
25 -48 43 -64 54 -175 73 -264 44z"/>
<path d="M1996 2543 c-4 -4 -21 -8 -39 -8 -74 -2 -173 -49 -234 -113 -37 -37
-51 -46 -79 -45 -19 0 -34 -4 -34 -9 0 -5 -4 -6 -10 -3 -5 3 -20 0 -32 -7 -22
-12 -28 -14 -47 -17 -30 -4 -153 -156 -163 -202 -2 -8 -7 -17 -11 -20 -4 -3
-10 -18 -13 -34 -3 -15 -9 -36 -14 -45 -5 -10 -12 -30 -14 -46 -3 -16 -10 -42
-14 -59 -5 -16 -8 -40 -7 -52 1 -13 -1 -23 -5 -23 -4 0 -6 -84 -6 -187 1 -179
0 -188 -21 -207 -12 -12 -25 -37 -30 -56 -11 -42 -10 -225 1 -259 5 -15 5 -21
-2 -17 -6 3 -2 -17 9 -46 10 -29 19 -54 19 -55 0 -1 18 -7 40 -13 22 -6 39
-14 38 -18 -1 -4 2 -25 7 -47 4 -22 7 -46 6 -53 -1 -6 3 -12 8 -12 6 0 8 -6 5
-13 -2 -7 4 -30 15 -52 10 -22 17 -43 14 -47 -2 -5 1 -8 6 -8 6 0 11 -6 11
-13 0 -14 69 -120 82 -125 4 -2 8 -8 8 -13 0 -5 18 -28 40 -50 22 -22 40 -43
40 -45 0 -11 74 -75 124 -108 47 -31 107 -61 131 -64 6 -1 25 -7 44 -13 54
-18 291 -15 291 4 0 4 6 7 13 7 30 0 256 121 265 142 2 5 8 8 13 8 19 0 131
108 166 161 14 21 30 39 34 39 5 0 9 5 9 11 0 6 12 27 28 47 52 70 58 74 91
67 46 -10 84 17 106 76 11 27 23 49 28 49 5 0 7 6 4 14 -3 7 0 22 8 32 7 11
13 21 13 24 0 3 5 25 12 50 13 47 21 160 11 160 -11 0 -29 50 -21 55 9 5 45
152 55 220 3 22 8 51 11 65 9 46 14 309 6 314 -5 3 -7 19 -6 35 1 17 -1 31 -5
31 -4 0 -8 6 -9 13 -1 23 -10 53 -28 93 -9 21 -18 41 -19 44 -7 23 -40 80 -47
80 -4 0 -8 5 -8 11 0 6 -19 34 -42 62 -46 55 -88 99 -88 92 0 -2 -12 7 -27 22
-16 14 -37 29 -48 34 -11 5 -45 23 -75 40 -64 36 -159 73 -210 83 -19 3 -46 9
-60 12 -38 9 -336 15 -344 7z"/>
<path d="M893 1465 c-26 -11 -60 -65 -48 -77 2 -2 6 -21 9 -43 2 -22 7 -51 10
-65 3 -14 8 -41 11 -60 4 -19 8 -44 10 -55 2 -11 4 -20 5 -20 1 0 3 -16 5 -35
2 -19 4 -36 5 -37 1 -2 3 -6 4 -10 1 -5 5 -14 9 -20 5 -7 4 -13 -2 -13 -5 0
-8 -9 -6 -20 6 -31 -8 -23 -30 17 -13 24 -30 39 -48 44 -53 14 -113 -24 -123
-78 -6 -30 -8 -32 -28 -21 -11 7 -32 11 -46 9 -32 -4 -92 -40 -85 -51 8 -13
-15 -24 -52 -26 -27 -1 -101 -44 -77 -44 5 0 3 -4 -5 -9 -15 -9 -23 -131 -8
-131 4 0 5 -4 2 -10 -8 -13 21 -66 40 -74 15 -5 42 -62 37 -78 -1 -5 2 -8 7
-8 5 0 7 -9 4 -20 -3 -11 0 -20 6 -20 6 0 11 -13 11 -28 0 -15 4 -32 9 -37 5
-6 14 -27 21 -47 6 -21 16 -38 21 -38 5 0 9 -7 9 -15 0 -8 5 -15 12 -15 6 0 9
-3 6 -6 -11 -11 57 -69 110 -93 82 -38 244 -30 334 15 15 8 29 13 31 12 3 -4
32 20 65 55 36 38 80 118 76 140 -1 9 2 19 6 22 5 3 7 14 5 25 -2 11 -1 20 3
20 15 0 1 141 -17 165 -8 11 -66 168 -63 172 1 2 -7 22 -16 45 -10 24 -17 53
-16 66 1 12 -3 25 -7 28 -5 3 -9 20 -9 38 0 17 -4 36 -9 41 -5 6 -12 26 -14
45 -3 19 -6 35 -7 35 -2 0 -10 55 -12 93 -1 12 -5 22 -8 22 -3 0 -7 16 -8 37
-2 20 -5 40 -8 45 -3 5 -8 23 -11 40 -5 35 -38 73 -69 80 -12 3 -35 0 -51 -7z"/>
</g>
</svg>
